# xmcd CD database file
# Copyright (C) 1993-1998 Ti Kan
# 
# Track frame offsets:
#     150
#     26085
#     45745
#     69140
#     86167
#     103805
#     120752
#     135865
#     161625
#     177365
#     199102
#     218597
#     241315
#     259812
# 
# Disc length: 3496 seconds
# 
# Revision: 1
# Processed by: cddbd v1.4b41PL1 Copyright (c) Steve Scherf et al.
# Submitted via: DiscPlay 4.0.4
# 
DISCID=b70da60e
DTITLE=Marlene MacDonald - Sweet Bondage of Time
DYEAR=1900
DGENRE=
TTITLE0=Sweet Bondage of Time
TTITLE1=Lonely Evening
TTITLE2=Freedom Song
TTITLE3=15 Year Old Boy
TTITLE4=One More Dramatic Song
TTITLE5=Painfully Real
TTITLE6=ElvisJamesDean
TTITLE7=Montreal
TTITLE8=Let a Good Thing Die
TTITLE9=All the Time in the World
TTITLE10=Commin Down on Me
TTITLE11=How High Will Ya Go
TTITLE12=Edited Version Track 1
TTITLE13=Spoken Word
EXTD=
EXTT0=
EXTT1=
EXTT2=
EXTT3=
EXTT4=
EXTT5=
EXTT6=
EXTT7=
EXTT8=
EXTT9=
EXTT10=
EXTT11=
EXTT12=
EXTT13=
PLAYORDER=
